<svg width="24" height="24" viewBox="0 0 24 24" fill="none" xmlns="http://www.w3.org/2000/svg">
<path fill-rule="evenodd" clip-rule="evenodd" d="M16.3294 0.28125C16.5358 1.68343 15.9651 3.0571 15.2122 4.02899C14.4067 5.07146 13.0183 5.87774 11.6731 5.83566C11.4276 4.49321 12.0563 3.11004 12.8213 2.18023C13.6606 1.15405 15.0989 0.366765 16.3294 0.28125ZM20.3683 20.0175C21.0618 18.9547 21.3209 18.4185 21.8592 17.2186C17.9437 15.7295 17.3163 10.1629 21.1913 8.02638C20.0094 6.54412 18.3485 5.6849 16.7806 5.6849C15.6509 5.6849 14.8769 5.9797 14.1732 6.24771C13.5868 6.47105 13.0493 6.67579 12.3955 6.67579C11.689 6.67579 11.0634 6.45146 10.4083 6.21658C9.68843 5.95847 8.93299 5.68761 7.9956 5.68761C6.23617 5.68761 4.3634 6.76266 3.17605 8.60056C1.50702 11.1891 1.79171 16.0553 4.49832 20.2008C5.46574 21.6844 6.75833 23.3512 8.44895 23.3662C9.15045 23.3731 9.61726 23.1638 10.1224 22.9372C10.7006 22.6779 11.329 22.396 12.4171 22.3902C13.5116 22.3837 14.1301 22.6689 14.7007 22.9321C15.1928 23.1591 15.6493 23.3696 16.3448 23.3621C18.0368 23.3485 19.4009 21.5011 20.3683 20.0175Z" fill="#0B0B0A"/>
</svg>
