<svg width="125" height="24" viewBox="0 0 125 24" fill="none" xmlns="http://www.w3.org/2000/svg">
<path d="M0.5 12C0.5 5.37258 5.87258 0 12.5 0C19.1274 0 24.5 5.37258 24.5 12C24.5 18.6274 19.1274 24 12.5 24C5.87258 24 0.5 18.6274 0.5 12Z" fill="white"/>
<path fill-rule="evenodd" clip-rule="evenodd" d="M6.77261 6.97976C6.84495 6.89584 6.9507 6.84821 7.06148 6.84964L18.0059 6.85152C18.1166 6.85009 18.2224 6.89772 18.2947 6.98163C18.3671 7.06555 18.3986 7.17715 18.3809 7.28652L16.789 17.059C16.7593 17.2424 16.5998 17.3764 16.414 17.374H8.7771C8.5296 17.372 8.3193 17.1925 8.27835 16.9484L6.68648 7.28464C6.66874 7.17528 6.70028 7.06367 6.77261 6.97976ZM11.327 13.834H13.7645L14.3551 10.3859H10.667L11.327 13.834Z" fill="#2684FF"/>
<path d="M17.8748 10.3867H14.3555L13.7648 13.8348H11.3273L8.44922 17.2511C8.54044 17.33 8.65675 17.3738 8.77734 17.3748H16.4161C16.6019 17.3772 16.7614 17.2432 16.7911 17.0598L17.8748 10.3867Z" fill="url(#paint0_linear_247_41595)"/>
<path d="M43.6894 9.84C45.1494 10.36 46.2294 11.54 46.2294 13.7C46.2294 16.92 44.0694 18 41.3494 18H33.7694V2.4H40.7494C43.1094 2.4 45.7294 2.96 45.7294 6.34C45.7294 8.24 44.8694 9.3 43.6894 9.84ZM40.1494 4.3H36.1294V9H40.2294C41.8494 9 43.3294 8.64 43.3294 6.66C43.3294 4.62 41.7894 4.3 40.1494 4.3ZM40.7894 10.96H36.1294V16.04H40.7294C42.5894 16.04 43.8294 15.44 43.8294 13.46C43.8294 11.52 42.4294 10.96 40.7894 10.96ZM49.7691 2.4V5.1H47.4491V2.4H49.7691ZM49.7691 6.9V18H47.4491V6.9H49.7691ZM57.4078 16.36C58.2278 16.36 58.8478 16.14 59.2078 15.98V17.8C58.6678 18 57.9478 18.2 56.6878 18.2C54.7878 18.2 52.8878 17.7 52.8878 14.36V8.7H50.7878V6.9H52.8878L53.5078 4H55.2278V6.9H58.9078V8.7H55.2278V14.12C55.2278 16.06 56.1678 16.36 57.4078 16.36ZM66.5563 6.46C70.3563 6.46 71.4563 9.16 71.4563 12.44C71.4563 15.72 70.3563 18.44 66.5563 18.44C64.4563 18.44 63.1763 17.6 62.4563 16.3L61.9163 18H60.3162V2.4H62.6363V8.3C63.3763 7.16 64.6163 6.46 66.5563 6.46ZM65.8763 16.52C68.3963 16.52 69.0963 14.74 69.0963 12.44C69.0963 10.12 68.3763 8.38 65.8763 8.38C63.3563 8.38 62.6363 10.12 62.6363 12.44C62.6363 14.76 63.3563 16.52 65.8763 16.52ZM80.7278 13.24V6.9H83.0478V18H81.4878L80.9278 16.56C80.3078 17.66 79.1678 18.44 77.1678 18.44C73.3678 18.44 72.6678 15.76 72.6678 13.42V6.9H74.9878V13.3C74.9878 14.86 75.4278 16.6 77.8478 16.6C80.2878 16.6 80.7278 14.8 80.7278 13.24ZM84.2725 12.44C84.2725 9.44 85.6725 6.46 90.3925 6.46C91.6125 6.46 92.5325 6.6 93.5925 6.96V9.02C92.6525 8.74 91.8725 8.56 90.7725 8.56C88.2525 8.56 86.5925 9.84 86.5925 12.44C86.5925 15.02 88.2325 16.36 90.7725 16.36C91.8925 16.36 92.6125 16.18 93.5925 15.88V17.94C92.5325 18.3 91.6125 18.44 90.3925 18.44C85.6725 18.44 84.2725 15.44 84.2725 12.44ZM97.2105 2.4V11.14L101.03 6.9H104.11L99.3505 12.06L104.33 18H101.33L97.2105 13V18H94.8905V2.4H97.2105ZM114.659 12.46V13.38H106.179C106.319 15.14 107.059 16.6 110.239 16.6C112.259 16.6 113.599 16.12 114.199 15.86V17.72C112.799 18.18 111.679 18.44 109.619 18.44C105.119 18.44 103.839 15.72 103.839 12.44C103.839 9.16 105.119 6.46 109.319 6.46C113.619 6.46 114.659 9.02 114.659 12.46ZM109.319 8.3C107.079 8.3 106.319 9.74 106.179 11.54H112.479C112.359 9.74 111.719 8.3 109.319 8.3ZM121.752 16.36C122.572 16.36 123.192 16.14 123.552 15.98V17.8C123.012 18 122.292 18.2 121.032 18.2C119.132 18.2 117.232 17.7 117.232 14.36V8.7H115.132V6.9H117.232L117.852 4H119.572V6.9H123.252V8.7H119.572V14.12C119.572 16.06 120.512 16.36 121.752 16.36Z" fill="#020617"/>
<defs>
<linearGradient id="paint0_linear_247_41595" x1="15.6272" y1="9.19626" x2="11.5618" y2="14.9687" gradientUnits="userSpaceOnUse">
<stop offset="0.18" stop-color="#0052CC"/>
<stop offset="1" stop-color="#2684FF"/>
</linearGradient>
</defs>
</svg>
