<svg width="512" height="512" viewBox="0 0 512 512" fill="none" xmlns="http://www.w3.org/2000/svg">
<path fill-rule="evenodd" clip-rule="evenodd" d="M0 256C0 114.615 114.615 0 256 0C397.385 0 512 114.615 512 256C512 397.385 397.385 512 256 512C114.615 512 0 397.385 0 256ZM140 146.107C137.637 146.076 135.381 147.092 133.838 148.882C132.294 150.673 131.622 153.054 132 155.387L165.96 361.547C166.833 366.754 171.32 370.583 176.6 370.627H339.52C343.483 370.678 346.886 367.819 347.52 363.907L381.48 155.427C381.858 153.094 381.186 150.713 379.642 148.922C378.099 147.132 375.843 146.116 373.48 146.147L140 146.107Z" fill="#020617"/>
<path fill-rule="evenodd" clip-rule="evenodd" d="M283 295.107H231L216.92 221.547H295.6L283 295.107Z" fill="#020617"/>
</svg>
