<svg width="135" height="135" viewBox="0 0 135 135" fill="none" xmlns="http://www.w3.org/2000/svg">
<g filter="url(#filter0_d_810_159286)">
<path d="M47.4354 95.4686V31.093C47.4354 27.9104 46.4968 24.7989 44.7394 22.1515C42.9807 19.5054 40.4821 17.4427 37.5581 16.2236C34.634 15.0058 31.418 14.688 28.314 15.3089C25.2099 15.9299 22.3593 17.4615 20.1219 19.7133C17.8832 21.9637 16.3605 24.8311 15.7432 27.9533C15.1259 31.0756 15.4419 34.3104 16.6525 37.2516C17.8646 40.1928 19.9153 42.7061 22.5459 44.4751C25.178 46.2427 28.2713 47.1869 31.4353 47.1869H95.4358C98.5998 47.1869 101.693 46.2427 104.325 44.4751C106.956 42.7061 109.007 40.1928 110.219 37.2516C111.429 34.3104 111.745 31.0756 111.128 27.9533C110.511 24.8311 108.988 21.9637 106.749 19.7133C104.512 17.4615 101.661 15.9299 98.5571 15.3089C95.4531 14.688 92.2371 15.0058 89.3131 16.2236C86.389 17.4427 83.8904 19.5054 82.1317 22.1515C80.3743 24.7989 79.4357 27.9104 79.4357 31.093V95.4686C79.4357 98.6517 80.3743 101.763 82.1317 104.41C83.8904 107.057 86.389 109.119 89.3131 110.337C92.2371 111.556 95.4531 111.874 98.5571 111.253C101.661 110.632 104.512 109.099 106.749 106.849C108.988 104.598 110.511 101.73 111.128 98.6084C111.745 95.4865 111.429 92.2505 110.219 89.3098C109.007 86.369 106.956 83.8554 104.325 82.0871C101.693 80.3186 98.5998 79.3747 95.4358 79.3747H31.4353C28.2713 79.3747 25.178 80.3186 22.5459 82.0871C19.9153 83.8554 17.8646 86.369 16.6525 89.3098C15.4419 92.2505 15.1259 95.4865 15.7432 98.6084C16.3605 101.73 17.8832 104.598 20.1219 106.849C22.3593 109.099 25.2099 110.632 28.314 111.253C31.418 111.874 34.634 111.556 37.5581 110.337C40.4821 109.119 42.9807 107.057 44.7394 104.41C46.4968 101.763 47.4354 98.6517 47.4354 95.4686Z" stroke="#FAFAFA" stroke-width="6" shape-rendering="crispEdges"/>
</g>
<defs>
<filter id="filter0_d_810_159286" x="0.435547" y="0" width="134" height="134.562" filterUnits="userSpaceOnUse" color-interpolation-filters="sRGB">
<feFlood flood-opacity="0" result="BackgroundImageFix"/>
<feColorMatrix in="SourceAlpha" type="matrix" values="0 0 0 0 0 0 0 0 0 0 0 0 0 0 0 0 0 0 127 0" result="hardAlpha"/>
<feOffset dx="4" dy="4"/>
<feGaussianBlur stdDeviation="8"/>
<feComposite in2="hardAlpha" operator="out"/>
<feColorMatrix type="matrix" values="0 0 0 0 1 0 0 0 0 1 0 0 0 0 1 0 0 0 0.15 0"/>
<feBlend mode="normal" in2="BackgroundImageFix" result="effect1_dropShadow_810_159286"/>
<feBlend mode="normal" in="SourceGraphic" in2="effect1_dropShadow_810_159286" result="shape"/>
</filter>
</defs>
</svg>
