<svg width="100" height="24" viewBox="0 0 100 24" fill="none" xmlns="http://www.w3.org/2000/svg">
<path fill-rule="evenodd" clip-rule="evenodd" d="M12.5 0.75C6.14625 0.75 1 5.89625 1 12.25C1 17.3387 4.29187 21.6369 8.86312 23.1606C9.43812 23.2612 9.65375 22.9162 9.65375 22.6144C9.65375 22.3412 9.63938 21.4356 9.63938 20.4725C6.75 21.0044 6.0025 19.7681 5.7725 19.1212C5.64313 18.7906 5.0825 17.77 4.59375 17.4969C4.19125 17.2812 3.61625 16.7494 4.57938 16.735C5.485 16.7206 6.13188 17.5687 6.3475 17.9137C7.3825 19.6531 9.03563 19.1644 9.69688 18.8625C9.7975 18.115 10.0994 17.6119 10.43 17.3244C7.87125 17.0369 5.1975 16.045 5.1975 11.6462C5.1975 10.3956 5.64312 9.36062 6.37625 8.55562C6.26125 8.26812 5.85875 7.08937 6.49125 5.50812C6.49125 5.50812 7.45438 5.20625 9.65375 6.68687C10.5738 6.42812 11.5513 6.29875 12.5288 6.29875C13.5063 6.29875 14.4838 6.42812 15.4038 6.68687C17.6031 5.19187 18.5662 5.50812 18.5662 5.50812C19.1987 7.08937 18.7962 8.26812 18.6812 8.55562C19.4144 9.36062 19.86 10.3812 19.86 11.6462C19.86 16.0594 17.1719 17.0369 14.6131 17.3244C15.03 17.6837 15.3894 18.3737 15.3894 19.4519C15.3894 20.99 15.375 22.2262 15.375 22.6144C15.375 22.9162 15.5906 23.2756 16.1656 23.1606C20.7081 21.6369 24 17.3244 24 12.25C24 5.89625 18.8538 0.75 12.5 0.75Z" fill="#1F2328"/>
<path fill-rule="evenodd" clip-rule="evenodd" d="M60.2992 17.9083H60.2691C60.2826 17.9083 60.2916 17.9217 60.3051 17.9246C60.3066 17.9246 60.3127 17.9232 60.3141 17.9232L60.2992 17.9083ZM60.3051 17.9246C60.1656 17.9261 59.8146 17.9976 59.444 17.9976C58.2738 17.9976 57.8688 17.4625 57.8688 16.7639V12.1115H60.2541C60.3892 12.1115 60.4942 11.9926 60.4942 11.8291V9.30231C60.4942 9.16854 60.3742 9.04963 60.2541 9.04963H57.8688V5.91339C57.8688 5.79448 57.7938 5.72017 57.6588 5.72017H54.4183C54.2833 5.72017 54.2082 5.79448 54.2082 5.91339V9.13881C54.2082 9.13881 52.573 9.54013 52.468 9.55499C52.348 9.58472 52.2729 9.68876 52.2729 9.80767V11.8291C52.2729 11.9926 52.393 12.1115 52.528 12.1115H54.1932V16.9868C54.1932 20.6136 56.7436 20.9851 58.4839 20.9851C59.279 20.9851 60.2391 20.7325 60.3892 20.6581C60.4792 20.6284 60.5242 20.5244 60.5242 20.4203V18.1908C60.5242 18.0436 60.4222 17.9455 60.3051 17.9246ZM95.8539 14.6533C95.8539 11.9629 94.7589 11.6062 93.6039 11.7251C92.7039 11.7846 91.9839 12.2305 91.9839 12.2305V17.4625C91.9839 17.4625 92.7189 17.9679 93.8139 17.9976C95.3589 18.0422 95.8539 17.4922 95.8539 14.6533ZM99.5 14.4154C99.5 19.5136 97.8348 20.9703 94.9243 20.9703C92.464 20.9703 91.1438 19.7366 91.1438 19.7366C91.1438 19.7366 91.0838 20.4203 91.0087 20.5095C90.9637 20.5987 90.8887 20.6284 90.7987 20.6284H88.5784C88.4284 20.6284 88.2933 20.5095 88.2933 20.3757L88.3233 3.8622C88.3233 3.72843 88.4434 3.60952 88.5784 3.60952H91.7739C91.9089 3.60952 92.0289 3.72843 92.0289 3.8622V9.4658C92.0289 9.4658 93.2591 8.67803 95.0593 8.67803L95.0443 8.6483C96.8446 8.6483 99.5 9.31717 99.5 14.4154ZM86.4181 9.04961H83.2676C83.1026 9.04961 83.0125 9.16852 83.0125 9.33202V17.4179C83.0125 17.4179 82.1874 17.9975 81.0623 17.9975C79.9371 17.9975 79.607 17.4922 79.607 16.3774V9.31716C79.607 9.18339 79.487 9.06448 79.352 9.06448H76.1415C76.0065 9.06448 75.8865 9.18339 75.8865 9.31716V16.9125C75.8865 20.1825 77.7318 21 80.2671 21C82.3524 21 84.0477 19.8555 84.0477 19.8555C84.0477 19.8555 84.1227 20.4352 84.1677 20.5244C84.1977 20.5987 84.3027 20.6581 84.4078 20.6581H86.4181C86.5831 20.6581 86.6731 20.5392 86.6731 20.4055L86.7031 9.30229C86.7031 9.16852 86.5831 9.04961 86.4181 9.04961ZM50.8622 9.03473H47.6672C47.5322 9.03473 47.4122 9.16851 47.4122 9.33201V20.2419C47.4122 20.5392 47.6072 20.6433 47.8622 20.6433H50.7422C51.0422 20.6433 51.1172 20.5095 51.1172 20.2419V9.28742C51.1172 9.15364 50.9972 9.03473 50.8622 9.03473ZM49.2872 4.01087C48.1322 4.01087 47.2172 4.91755 47.2172 6.06205C47.2172 7.20656 48.1322 8.11324 49.2872 8.11324C50.4122 8.11324 51.3272 7.20656 51.3272 6.06205C51.3272 4.91755 50.4122 4.01087 49.2872 4.01087ZM74.0262 3.63928H70.8607C70.7257 3.63928 70.6057 3.75819 70.6057 3.89196V9.9712H65.64V3.89196C65.64 3.75819 65.5199 3.63928 65.3849 3.63928H62.1894C62.0544 3.63928 61.9344 3.75819 61.9344 3.89196V20.4055C61.9344 20.5393 62.0694 20.6582 62.1894 20.6582H65.3849C65.5199 20.6582 65.64 20.5393 65.64 20.4055V13.3452H70.6057L70.5757 20.4055C70.5757 20.5393 70.6957 20.6582 70.8307 20.6582H74.0262C74.1612 20.6582 74.2812 20.5393 74.2812 20.4055V3.89196C74.2812 3.75819 74.1612 3.63928 74.0262 3.63928ZM45.717 10.9522V19.4839C45.717 19.5434 45.702 19.6474 45.627 19.6771C45.627 19.6771 43.7517 21 40.6612 21C36.9257 21 32.5 19.8406 32.5 12.2007C32.5 4.56079 36.3706 2.98524 40.1511 3.0001C43.4216 3.0001 44.7418 3.72842 44.9519 3.8622C45.0119 3.93651 45.0419 3.99597 45.0419 4.07029L44.4118 6.71602C44.4118 6.84979 44.2768 7.01329 44.1117 6.9687C43.5717 6.8052 42.7615 6.4782 40.8562 6.4782C38.6509 6.4782 36.2806 7.10248 36.2806 12.0223C36.2806 16.9422 38.5309 17.5219 40.1511 17.5219C41.5313 17.5219 42.0264 17.3584 42.0264 17.3584V13.9398H39.8211C39.6561 13.9398 39.5361 13.8209 39.5361 13.6871V10.9522C39.5361 10.8184 39.6561 10.6995 39.8211 10.6995H45.4319C45.597 10.6995 45.717 10.8184 45.717 10.9522Z" fill="#1F2328"/>
</svg>
