<svg width="100" height="24" viewBox="0 0 100 24" fill="none" xmlns="http://www.w3.org/2000/svg">
<path d="M1.89453 9.40989H8.07145L5.32615 1.10386C5.01241 0.629235 4.73788 0.906102 4.63983 1.10386L1.89453 9.40989Z" fill="#E24329"/>
<path d="M23.0156 9.40989H17.038L19.6947 1.10386C19.9983 0.629235 20.264 0.906102 20.3589 1.10386L23.0156 9.40989Z" fill="#E24329"/>
<path d="M0.58911 13.3953L1.89479 9.41016L12.555 23.159C12.3955 23.1445 12.3058 23.1236 12.1459 23.0593C11.986 22.9951 0.788365 14.6905 0.788365 14.6905C0.389854 14.3717 0.489482 13.6942 0.58911 13.3953Z" fill="#FCA326"/>
<path d="M24.4109 13.3953L23.0161 9.41016L12.5447 23.159C12.7041 23.1445 12.7938 23.1236 12.9537 23.0593C13.1136 22.9951 24.2116 14.6905 24.2116 14.6905C24.6101 14.3717 24.5105 13.6942 24.4109 13.3953Z" fill="#FCA326"/>
<path d="M12.5547 23.159L1.89453 9.41016H8.17108L12.5547 23.159Z" fill="#FC6D26"/>
<path d="M12.5547 23.159L23.0156 9.41016H16.9483L12.5547 23.159Z" fill="#FC6D26"/>
<path d="M12.5555 23.159L8.07227 9.41016H12.5555V23.159Z" fill="#E24329"/>
<path d="M12.5558 23.159L17.0391 9.41016H12.5558V23.159Z" fill="#E24329"/>
<path fill-rule="evenodd" clip-rule="evenodd" d="M85.7906 19.1573C85.7906 19.1573 86.0958 9.44176 85.7906 8.32269C85.4854 7.20362 84.4172 5.27068 81.5177 5.11808C78.6183 4.96548 76.9397 5.72848 75.7189 6.94929L76.7871 8.47529C79.362 7.08884 83.8985 6.64268 83.5016 10.6117C83.4434 10.6117 83.3847 10.6117 83.3253 10.6116C80.1984 10.6101 75.4137 10.6077 75.4137 14.8845C75.4137 19.0047 79.0761 19.4625 79.8391 19.4625C81.823 19.4625 83.5016 18.5469 83.5016 17.7839C83.6236 17.6618 83.7559 17.7331 83.8068 17.7839L83.9594 19.1573H85.7906ZM83.5016 12.9007V15.6475C82.586 17.1735 77.8553 17.9365 78.0079 14.7319C78.1243 12.2883 82.4334 12.2903 83.5016 12.9007Z" fill="#554488"/>
<path d="M64.5791 1.30306H67.0207V16.8683H74.3455V19.1573H64.5791V1.30306Z" fill="#554488"/>
<path d="M55.423 1.30306H57.8647V5.57588H61.8323V7.55969H57.8647V15.0371C57.8138 15.6475 58.1088 16.9294 59.6959 17.1735H61.8323V19.4625H59.6959C58.2716 19.5134 55.423 18.6995 55.423 15.0371V1.30306Z" fill="#554488"/>
<path d="M49.6242 5.57588H52.0658V19.1573H49.6242V5.57588Z" fill="#554488"/>
<path d="M49.6242 3.59207H52.0658V1.30306H49.6242V3.59207Z" fill="#554488"/>
<path d="M39.5526 9.2383H46.1144V18.2417C45.7075 18.6995 44.1001 19.6151 40.926 19.6151C29.7013 19.6151 29.7324 0.546858 40.7734 0.845263C42.452 0.845263 45.3514 1.60827 46.4196 2.67647L45.3514 4.50768C44.5375 4.04988 42.5165 3.35049 40.926 3.28687C33.296 2.98167 33.189 17.1735 40.926 17.1735C41.9026 17.1735 43.1641 16.8683 43.6728 16.7157V11.5273H39.5526V9.2383Z" fill="#554488"/>
<path fill-rule="evenodd" clip-rule="evenodd" d="M88.9952 1.30306V18.5469C90.1143 19.1065 92.9435 19.7614 95.8622 19.0047C99.9824 17.9365 102.424 8.32269 96.32 5.42328C95.2518 4.91588 93.1154 4.81288 91.1316 6.49149V1.30306H88.9952ZM91.1316 16.7157V8.62789C91.742 8.17009 96.9304 5.11808 97.2356 11.9851C97.4798 17.4787 93.268 17.4279 91.1316 16.7157Z" fill="#554488"/>
</svg>
