<svg width="24" height="22" viewBox="0 0 24 22" fill="none" xmlns="http://www.w3.org/2000/svg">
<path d="M12.0005 4.25333C14.0661 4.25333 15.4594 5.14555 16.2538 5.89111L19.3583 2.86C17.4516 1.08778 14.9705 0 12.0005 0C7.69827 0 3.98272 2.46889 2.17383 6.06222L5.7305 8.82444C6.62272 6.17222 9.09161 4.25333 12.0005 4.25333Z" fill="#EA4335"/>
<path d="M22.56 11.245C22.56 10.3405 22.4867 9.68054 22.3278 8.99609H12V13.0783H18.0622C17.94 14.0928 17.28 15.6205 15.8133 16.6472L19.2844 19.3361C21.3622 17.4172 22.56 14.5939 22.56 11.245Z" fill="#4285F4"/>
<path d="M5.74222 13.1719C5.51 12.4875 5.37556 11.7541 5.37556 10.9964C5.37556 10.2386 5.51 9.50526 5.73 8.82081L2.17333 6.05859C1.42778 7.5497 1 9.22415 1 10.9964C1 12.7686 1.42778 14.443 2.17333 15.9341L5.74222 13.1719Z" fill="#FBBC05"/>
<path d="M11.9961 22.0002C14.9661 22.0002 17.4594 21.0224 19.2805 19.3358L15.8094 16.6469C14.8805 17.2947 13.6339 17.7469 11.9961 17.7469C9.0872 17.7469 6.61831 15.828 5.73831 13.1758L2.18164 15.938C3.99053 19.5313 7.69386 22.0002 11.9961 22.0002Z" fill="#34A853"/>
</svg>
