<svg width="17" height="16" viewBox="0 0 17 16" fill="none" xmlns="http://www.w3.org/2000/svg">
<path fill-rule="evenodd" clip-rule="evenodd" d="M8.50065 0.5C4.26482 0.5 0.833984 3.93083 0.833984 8.16667C0.833984 11.5592 3.02857 14.4246 6.07607 15.4404C6.4594 15.5075 6.60315 15.2775 6.60315 15.0763C6.60315 14.8942 6.59357 14.2904 6.59357 13.6483C4.66732 14.0029 4.16898 13.1787 4.01565 12.7475C3.9294 12.5271 3.55565 11.8467 3.22982 11.6646C2.96148 11.5208 2.57815 11.1662 3.22023 11.1567C3.82398 11.1471 4.25523 11.7125 4.39898 11.9425C5.08898 13.1021 6.19107 12.7762 6.6319 12.575C6.69899 12.0767 6.90023 11.7412 7.12065 11.5496C5.41482 11.3579 3.63232 10.6967 3.63232 7.76417C3.63232 6.93042 3.9294 6.24042 4.41815 5.70375C4.34148 5.51208 4.07315 4.72625 4.49482 3.67208C4.49482 3.67208 5.1369 3.47083 6.60315 4.45792C7.21649 4.28542 7.86815 4.19917 8.51982 4.19917C9.17148 4.19917 9.82315 4.28542 10.4365 4.45792C11.9027 3.46125 12.5448 3.67208 12.5448 3.67208C12.9665 4.72625 12.6982 5.51208 12.6215 5.70375C13.1102 6.24042 13.4073 6.92083 13.4073 7.76417C13.4073 10.7062 11.6152 11.3579 9.9094 11.5496C10.1873 11.7892 10.4269 12.2492 10.4269 12.9679C10.4269 13.9933 10.4173 14.8175 10.4173 15.0763C10.4173 15.2775 10.5611 15.5171 10.9444 15.4404C13.9727 14.4246 16.1673 11.5496 16.1673 8.16667C16.1673 3.93083 12.7365 0.5 8.50065 0.5Z" fill="#64748B"/>
</svg>
