<svg width="64" height="64" viewBox="0 0 64 64" fill="none" xmlns="http://www.w3.org/2000/svg">
<path d="M48 53.334C48 49.0905 46.3143 45.0209 43.3137 42.0203C40.3131 39.0197 36.2434 37.334 32 37.334M32 37.334C27.7565 37.334 23.6869 39.0197 20.6863 42.0203C17.6857 45.0209 16 49.0905 16 53.334M32 37.334C37.891 37.334 42.6666 32.5584 42.6666 26.6673C42.6666 20.7763 37.891 16.0007 32 16.0007C26.1089 16.0007 21.3333 20.7763 21.3333 26.6673C21.3333 32.5584 26.1089 37.334 32 37.334ZM58.6666 32.0007C58.6666 46.7282 46.7276 58.6673 32 58.6673C17.2724 58.6673 5.33331 46.7282 5.33331 32.0007C5.33331 17.2731 17.2724 5.33398 32 5.33398C46.7276 5.33398 58.6666 17.2731 58.6666 32.0007Z" stroke="#64748B" stroke-width="2" stroke-linecap="round" stroke-linejoin="round"/>
</svg>
