<svg width="256" height="256" viewBox="0 0 256 256" fill="none" xmlns="http://www.w3.org/2000/svg">
<path d="M0 131.241C0 58.7571 57.3173 0 128.001 0C198.691 0 256 58.7571 256 131.241C256 189.207 219.37 238.384 168.539 255.757C162.051 257.046 159.747 252.954 159.747 249.461C159.747 248.029 159.763 245.519 159.785 242.164C159.829 235.395 159.895 225.182 159.895 213.445C159.895 201.201 155.804 193.214 151.213 189.141C179.716 185.892 209.66 174.793 209.66 124.386C209.66 110.058 204.694 98.35 196.487 89.1592C197.816 85.8536 202.199 72.5053 195.232 54.4279C195.232 54.4279 184.498 50.9006 160.067 67.8805C149.838 64.9727 138.879 63.5144 128.001 63.4644C117.123 63.5144 106.173 64.9727 95.9626 67.8805C71.5019 50.9006 60.7532 54.4279 60.7532 54.4279C53.8029 72.5053 58.1842 85.8536 59.5132 89.1592C51.3251 98.35 46.3248 110.058 46.3248 124.386C46.3248 174.674 76.2118 185.927 104.643 189.246C100.982 192.523 97.6647 198.313 96.5159 206.795C89.2116 210.148 70.6838 215.949 59.2674 195.885C59.2674 195.885 52.4993 183.287 39.6458 182.361C39.6458 182.361 27.1569 182.193 38.7704 190.339C38.7704 190.339 47.16 194.373 52.9826 209.542C52.9826 209.542 60.4968 232.966 96.1068 225.027C96.1367 230.987 96.1855 236.762 96.2237 241.294C96.2559 245.098 96.2806 248.033 96.2806 249.461C96.2806 252.927 93.932 256.989 87.5349 255.774C36.6762 238.421 0 189.226 0 131.241Z" fill="#161514"/>
<path d="M46.6694 187.928C47.5792 188.371 48.5778 188.177 48.8592 187.532C49.1808 186.884 48.6518 185.995 47.723 185.571C46.7985 185.126 45.7977 185.311 45.5227 185.976C45.2223 186.624 45.7427 187.504 46.6694 187.928Z" fill="#161514"/>
<path d="M54.0257 193.403C53.4164 193.977 52.2253 193.71 51.4171 192.802C50.5814 191.896 50.4248 190.685 51.0426 190.102C51.671 189.527 52.8261 189.796 53.664 190.702C54.4997 191.619 54.6626 192.822 54.0257 193.403Z" fill="#161514"/>
<path d="M56.21 199.767C57.0013 200.922 58.2813 201.441 59.0641 200.888C59.8638 200.322 59.8638 198.936 59.0831 197.761C58.2813 196.614 57.0203 196.115 56.2269 196.67C55.4272 197.225 55.4272 198.611 56.21 199.767Z" fill="#161514"/>
<path d="M65.9669 208.117C65.2666 208.902 63.775 208.692 62.6833 207.62C61.5662 206.572 61.2552 205.085 61.9576 204.3C62.6664 203.512 64.1664 203.734 65.2666 204.797C66.3752 205.842 66.7137 207.34 65.9669 208.117Z" fill="#161514"/>
<path d="M72.2975 213.363C73.7447 213.795 75.1813 213.333 75.4901 212.315C75.7906 211.28 74.8427 210.096 73.3998 209.653C71.9421 209.19 70.4992 209.672 70.1988 210.697C69.9068 211.725 70.8525 212.917 72.2975 213.363Z" fill="#161514"/>
<path d="M85.9486 213.094C85.9846 214.166 84.7574 215.055 83.2384 215.074C81.7108 215.109 80.4753 214.241 80.4583 213.187C80.4583 212.105 81.6579 211.225 83.1855 211.199C84.7046 211.169 85.9486 212.029 85.9486 213.094Z" fill="#161514"/>
<path d="M93.2942 213.815C94.8027 213.529 95.8584 212.455 95.6765 211.409C95.484 210.346 94.132 209.718 92.6214 209.984C91.1404 210.262 90.0656 211.336 90.2497 212.407C90.438 213.445 91.8111 214.09 93.2942 213.815Z" fill="#161514"/>
</svg>
